{
  "accessors": [
    {
      "bufferView": 2,
      "componentType": 5126,
      "count": 65532,
      "max": [
        49.08297348022461,
        49.64060592651367,
        49.02777099609375
      ],
      "min": [
        -47.863731384277344,
        -49.64060592651367,
        -38.504234313964844
      ],
      "type": "VEC3"
    },
    {
      "bufferView": 2,
      "byteOffset": 786384,
      "componentType": 5126,
      "count": 65532,
      "max": [
        0.9999904632568359,
        0.9999999403953552,
        0.9998904466629028
      ],
      "min": [
        -0.9999326467514038,
        -0.9999999403953552,
        -0.9998904466629028
      ],
      "type": "VEC3"
    },
    {
      "bufferView": 1,
      "componentType": 5126,
      "count": 65532,
      "max": [
        49.636375427246094,
        104.1419677734375
      ],
      "min": [
        -50.85817337036133,
        -101.6473388671875
      ],
      "type": "VEC2"
    },
    {
      "bufferView": 0,
      "componentType": 5125,
      "count": 271932,
      "type": "SCALAR"
    },
    {
      "bufferView": 2,
      "byteOffset": 1572768,
      "componentType": 5126,
      "count": 65532,
      "max": [
        47.092552185058594,
        48.09309768676758,
        52.115509033203125
      ],
      "min": [
        -51.03656768798828,
        -48.09309768676758,
        -43.17844772338867
      ],
      "type": "VEC3"
    },
    {
      "bufferView": 2,
      "byteOffset": 2359152,
      "componentType": 5126,
      "count": 65532,
      "max": [
        0.9999917149543762,
        0.9999999403953552,
        0.9999999403953552
      ],
      "min": [
        -0.9999917149543762,
        -0.9999999403953552,
        -0.9999999403953552
      ],
      "type": "VEC3"
    },
    {
      "bufferView": 1,
      "byteOffset": 524256,
      "componentType": 5126,
      "count": 65532,
      "max": [
        182.4728240966797,
        384.84783935546875
      ],
      "min": [
        -182.4728240966797,
        -384.8587646484375
      ],
      "type": "VEC2"
    },
    {
      "bufferView": 0,
      "byteOffset": 1087728,
      "componentType": 5125,
      "count": 237828,
      "type": "SCALAR"
    },
    {
      "bufferView": 2,
      "byteOffset": 3145536,
      "componentType": 5126,
      "count": 29948,
      "max": [
        44.659507751464844,
        49.64060592651367,
        49.937313079833984
      ],
      "min": [
        -49.69062042236328,
        -37.530059814453125,
        -45.50851821899414
      ],
      "type": "VEC3"
    },
    {
      "bufferView": 2,
      "byteOffset": 3504912,
      "componentType": 5126,
      "count": 29948,
      "max": [
        0.999943196773529,
        0.9999999403953552,
        0.9999999403953552
      ],
      "min": [
        -0.9998851418495178,
        -0.9999999403953552,
        -0.9999999403953552
      ],
      "type": "VEC3"
    },
    {
      "bufferView": 1,
      "byteOffset": 1048512,
      "componentType": 5126,
      "count": 29948,
      "max": [
        49.636375427246094,
        104.1419677734375
      ],
      "min": [
        -50.85817337036133,
        -101.6473388671875
      ],
      "type": "VEC2"
    },
    {
      "bufferView": 0,
      "byteOffset": 2039040,
      "componentType": 5125,
      "count": 136977,
      "type": "SCALAR"
    }
  ],
  "asset": {
    "extras": {
      "author": "Random13 (https://sketchfab.com/Random13)",
      "license": "CC-BY-4.0 (http://creativecommons.org/licenses/by/4.0/)",
      "source": "https://sketchfab.com/3d-models/carbon-60-sphere-5ef45e632eb8431998400ea73ddc51a5",
      "title": "CARBON 60 SPHERE"
    },
    "generator": "Sketchfab-12.68.0",
    "version": "2.0"
  },
  "bufferViews": [
    {
      "buffer": 0,
      "byteLength": 2586948,
      "name": "floatBufferViews",
      "target": 34963
    },
    {
      "buffer": 0,
      "byteLength": 1288096,
      "byteOffset": 2586948,
      "byteStride": 8,
      "name": "floatBufferViews",
      "target": 34962
    },
    {
      "buffer": 0,
      "byteLength": 3864288,
      "byteOffset": 3875044,
      "byteStride": 12,
      "name": "floatBufferViews",
      "target": 34962
    }
  ],
  "buffers": [
    {
      "byteLength": 7739332,
      "uri": "scene.bin"
    }
  ],
  "materials": [
    {
      "doubleSided": true,
      "name": "Plastic_-_Glossy_Yellow",
      "pbrMetallicRoughness": {
        "metallicFactor": 0.0,
        "roughnessFactor": 0.6
      }
    }
  ],
  "meshes": [
    {
      "name": "Object_0",
      "primitives": [
        {
          "attributes": {
            "NORMAL": 1,
            "POSITION": 0,
            "TEXCOORD_0": 2
          },
          "indices": 3,
          "material": 0,
          "mode": 4
        }
      ]
    },
    {
      "name": "Object_1",
      "primitives": [
        {
          "attributes": {
            "NORMAL": 5,
            "POSITION": 4,
            "TEXCOORD_0": 6
          },
          "indices": 7,
          "material": 0,
          "mode": 4
        }
      ]
    },
    {
      "name": "Object_2",
      "primitives": [
        {
          "attributes": {
            "NORMAL": 9,
            "POSITION": 8,
            "TEXCOORD_0": 10
          },
          "indices": 11,
          "material": 0,
          "mode": 4
        }
      ]
    }
  ],
  "nodes": [
    {
      "children": [
        1
      ],
      "matrix": [
        0.13986730575561523,
        0.0,
        0.0,
        0.0,
        0.0,
        3.105678064843414e-17,
        -0.13986730575561523,
        0.0,
        0.0,
        0.13986730575561523,
        3.105678064843414e-17,
        0.0,
        0.0,
        0.0,
        0.0,
        1.0
      ],
      "name": "Sketchfab_model"
    },
    {
      "children": [
        2,
        3,
        4
      ],
      "name": "holysphere.obj.cleaner.materialmerger.gles"
    },
    {
      "mesh": 0,
      "name": "Object_2"
    },
    {
      "mesh": 1,
      "name": "Object_3"
    },
    {
      "mesh": 2,
      "name": "Object_4"
    }
  ],
  "scene": 0,
  "scenes": [
    {
      "name": "Sketchfab_Scene",
      "nodes": [
        0
      ]
    }
  ]
}
